# FX_SIL_BHOL: Nitro 3D VFX Mesh
v 0.0000 8.0000 0.0000
v 0.0000 8.0000 6.0000
v 0.0000 8.0000 18.0000
v 2.2961 8.0000 5.5433
v 6.8883 8.0000 16.6298
v 4.2426 8.0000 4.2426
v 12.7279 8.0000 12.7279
v 5.5433 8.0000 2.2961
v 16.6298 8.0000 6.8883
v 6.0000 8.0000 0.0000
v 18.0000 8.0000 0.0000
v 5.5433 8.0000 -2.2961
v 16.6298 8.0000 -6.8883
v 4.2426 8.0000 -4.2426
v 12.7279 8.0000 -12.7279
v 2.2961 8.0000 -5.5433
v 6.8883 8.0000 -16.6298
v 0.0000 8.0000 -6.0000
v 0.0000 8.0000 -18.0000
v -2.2961 8.0000 -5.5433
v -6.8883 8.0000 -16.6298
v -4.2426 8.0000 -4.2426
v -12.7279 8.0000 -12.7279
v -5.5433 8.0000 -2.2961
v -16.6298 8.0000 -6.8883
v -6.0000 8.0000 -0.0000
v -18.0000 8.0000 -0.0000
v -5.5433 8.0000 2.2961
v -16.6298 8.0000 6.8883
v -4.2426 8.0000 4.2426
v -12.7279 8.0000 12.7279
v -2.2961 8.0000 5.5433
v -6.8883 8.0000 16.6298
f 1 2 4
f 2 3 4
f 4 3 5
f 1 4 6
f 4 5 6
f 6 5 7
f 1 6 8
f 6 7 8
f 8 7 9
f 1 8 10
f 8 9 10
f 10 9 11
f 1 10 12
f 10 11 12
f 12 11 13
f 1 12 14
f 12 13 14
f 14 13 15
f 1 14 16
f 14 15 16
f 16 15 17
f 1 16 18
f 16 17 18
f 18 17 19
f 1 18 20
f 18 19 20
f 20 19 21
f 1 20 22
f 20 21 22
f 22 21 23
f 1 22 24
f 22 23 24
f 24 23 25
f 1 24 26
f 24 25 26
f 26 25 27
f 1 26 28
f 26 27 28
f 28 27 29
f 1 28 30
f 28 29 30
f 30 29 31
f 1 30 32
f 30 31 32
f 32 31 33
f 1 32 2
f 32 33 2
f 2 33 3
