# FX_SIL_Shield: Nitro 3D VFX Mesh
v 0.0000 14.0000 0.0000
v 0.0000 10.0000 8.0000
v 6.9282 10.0000 4.0000
v 6.9282 10.0000 -4.0000
v 0.0000 10.0000 -8.0000
v -6.9282 10.0000 -4.0000
v -6.9282 10.0000 4.0000
v 0.0000 4.0000 10.0000
v 8.6603 4.0000 5.0000
v 8.6603 4.0000 -5.0000
v 0.0000 4.0000 -10.0000
v -8.6603 4.0000 -5.0000
v -8.6603 4.0000 5.0000
v 0.0000 0.0000 10.0000
v 8.6603 0.0000 5.0000
v 8.6603 0.0000 -5.0000
v 0.0000 0.0000 -10.0000
v -8.6603 0.0000 -5.0000
v -8.6603 0.0000 5.0000
f 1 2 3
f 2 8 3
f 3 8 9
f 1 3 4
f 3 9 4
f 4 9 10
f 1 4 5
f 4 10 5
f 5 10 11
f 1 5 6
f 5 11 6
f 6 11 12
f 1 6 7
f 6 12 7
f 7 12 13
f 1 7 2
f 7 13 2
f 2 13 8
