# FX_SILSON_Meteor: Nitro 3D VFX Mesh
v 0.0000 0.0000 2.0000
v 0.0000 1.0000 4.0000
v 1.8267 0.7500 1.8267
v 3.2409 1.7500 3.2409
v 3.1667 1.5000 0.0000
v 5.1667 2.5000 0.0000
v 2.6517 2.2500 -2.6517
v 4.0659 3.2500 -4.0659
v 0.0000 3.0000 -4.3333
v 0.0000 4.0000 -6.3333
v -3.4766 3.7500 -3.4766
v -4.8908 4.7500 -4.8908
v -5.5000 4.5000 -0.0000
v -7.5000 5.5000 -0.0000
v -4.3016 5.2500 4.3016
v -5.7158 6.2500 5.7158
v -0.0000 6.0000 6.6667
v -0.0000 7.0000 8.6667
v 5.1265 6.7500 5.1265
v 6.5407 7.7500 6.5407
v 7.8333 7.5000 0.0000
v 9.8333 8.5000 0.0000
v 5.9515 8.2500 -5.9515
v 7.3657 9.2500 -7.3657
v 0.0000 9.0000 -9.0000
v 0.0000 10.0000 -11.0000
v -6.7764 9.7500 -6.7764
v -8.1907 10.7500 -8.1907
v -10.1667 10.5000 0.0000
v -12.1667 11.5000 0.0000
v -7.6014 11.2500 7.6014
v -9.0156 12.2500 9.0156
v -0.0000 12.0000 11.3333
v -0.0000 13.0000 13.3333
v 8.4264 12.7500 8.4264
v 9.8406 13.7500 9.8406
v 12.5000 13.5000 0.0000
v 14.5000 14.5000 0.0000
v 9.2513 14.2500 -9.2513
v 10.6655 15.2500 -10.6655
v 0.0000 15.0000 -13.6667
v 0.0000 16.0000 -15.6667
v -10.0763 15.7500 -10.0763
v -11.4905 16.7500 -11.4905
v -14.8333 16.5000 -0.0000
v -16.8333 17.5000 -0.0000
v -10.9012 17.2500 10.9012
v -12.3154 18.2500 12.3154
f 1 2 3
f 3 2 4
f 3 4 5
f 5 4 6
f 5 6 7
f 7 6 8
f 7 8 9
f 9 8 10
f 9 10 11
f 11 10 12
f 11 12 13
f 13 12 14
f 13 14 15
f 15 14 16
f 15 16 17
f 17 16 18
f 17 18 19
f 19 18 20
f 19 20 21
f 21 20 22
f 21 22 23
f 23 22 24
f 23 24 25
f 25 24 26
f 25 26 27
f 27 26 28
f 27 28 29
f 29 28 30
f 29 30 31
f 31 30 32
f 31 32 33
f 33 32 34
f 33 34 35
f 35 34 36
f 35 36 37
f 37 36 38
f 37 38 39
f 39 38 40
f 39 40 41
f 41 40 42
f 41 42 43
f 43 42 44
f 43 44 45
f 45 44 46
f 45 46 47
f 47 46 48
