# FX_SIL_Wave: Nitro 3D VFX Mesh
v 0.0000 2.0000 8.0000
v 0.0000 3.0000 18.0000
v 2.4721 2.0000 7.6085
v 5.5623 3.0000 17.1190
v 4.7023 2.0000 6.4721
v 10.5801 3.0000 14.5623
v 6.4721 2.0000 4.7023
v 14.5623 3.0000 10.5801
v 7.6085 2.0000 2.4721
v 17.1190 3.0000 5.5623
v 8.0000 2.0000 0.0000
v 18.0000 3.0000 0.0000
v 7.6085 2.0000 -2.4721
v 17.1190 3.0000 -5.5623
v 6.4721 2.0000 -4.7023
v 14.5623 3.0000 -10.5801
v 4.7023 2.0000 -6.4721
v 10.5801 3.0000 -14.5623
v 2.4721 2.0000 -7.6085
v 5.5623 3.0000 -17.1190
v 0.0000 2.0000 -8.0000
v 0.0000 3.0000 -18.0000
v -2.4721 2.0000 -7.6085
v -5.5623 3.0000 -17.1190
v -4.7023 2.0000 -6.4721
v -10.5801 3.0000 -14.5623
v -6.4721 2.0000 -4.7023
v -14.5623 3.0000 -10.5801
v -7.6085 2.0000 -2.4721
v -17.1190 3.0000 -5.5623
v -8.0000 2.0000 -0.0000
v -18.0000 3.0000 -0.0000
v -7.6085 2.0000 2.4721
v -17.1190 3.0000 5.5623
v -6.4721 2.0000 4.7023
v -14.5623 3.0000 10.5801
v -4.7023 2.0000 6.4721
v -10.5801 3.0000 14.5623
v -2.4721 2.0000 7.6085
v -5.5623 3.0000 17.1190
f 1 2 3
f 3 2 4
f 3 4 5
f 5 4 6
f 5 6 7
f 7 6 8
f 7 8 9
f 9 8 10
f 9 10 11
f 11 10 12
f 11 12 13
f 13 12 14
f 13 14 15
f 15 14 16
f 15 16 17
f 17 16 18
f 17 18 19
f 19 18 20
f 19 20 21
f 21 20 22
f 21 22 23
f 23 22 24
f 23 24 25
f 25 24 26
f 25 26 27
f 27 26 28
f 27 28 29
f 29 28 30
f 29 30 31
f 31 30 32
f 31 32 33
f 33 32 34
f 33 34 35
f 35 34 36
f 35 36 37
f 37 36 38
f 37 38 39
f 39 38 40
f 39 40 1
f 1 40 2
