# FX_SIL_Slam: Nitro 3D VFX Mesh
v 0.0000 0.2000 12.0000
v 0.0000 1.5000 16.0000
v 4.5922 0.2000 11.0866
v 6.1229 1.5000 14.7821
v 8.4853 0.2000 8.4853
v 11.3137 1.5000 11.3137
v 11.0866 0.2000 4.5922
v 14.7821 1.5000 6.1229
v 12.0000 0.2000 0.0000
v 16.0000 1.5000 0.0000
v 11.0866 0.2000 -4.5922
v 14.7821 1.5000 -6.1229
v 8.4853 0.2000 -8.4853
v 11.3137 1.5000 -11.3137
v 4.5922 0.2000 -11.0866
v 6.1229 1.5000 -14.7821
v 0.0000 0.2000 -12.0000
v 0.0000 1.5000 -16.0000
v -4.5922 0.2000 -11.0866
v -6.1229 1.5000 -14.7821
v -8.4853 0.2000 -8.4853
v -11.3137 1.5000 -11.3137
v -11.0866 0.2000 -4.5922
v -14.7821 1.5000 -6.1229
v -12.0000 0.2000 -0.0000
v -16.0000 1.5000 -0.0000
v -11.0866 0.2000 4.5922
v -14.7821 1.5000 6.1229
v -8.4853 0.2000 8.4853
v -11.3137 1.5000 11.3137
v -4.5922 0.2000 11.0866
v -6.1229 1.5000 14.7821
f 1 2 3
f 3 2 4
f 3 4 5
f 5 4 6
f 5 6 7
f 7 6 8
f 7 8 9
f 9 8 10
f 9 10 11
f 11 10 12
f 11 12 13
f 13 12 14
f 13 14 15
f 15 14 16
f 15 16 17
f 17 16 18
f 17 18 19
f 19 18 20
f 19 20 21
f 21 20 22
f 21 22 23
f 23 22 24
f 23 24 25
f 25 24 26
f 25 26 27
f 27 26 28
f 27 28 29
f 29 28 30
f 29 30 31
f 31 30 32
f 31 32 1
f 1 32 2
