# SilBall_AA: Forma esferica de telecinese do Silver
v -0.0 4.837 -6.657
v -2.889 4.837 -5.998
v -5.205 4.837 -4.151
v -6.49 4.837 -1.481
v -6.49 4.837 1.481
v -5.205 4.837 4.151
v -2.889 4.837 5.998
v -0.0 4.837 6.657
v 2.889 4.837 5.998
v 5.205 4.837 4.151
v 6.49 4.837 1.481
v 6.49 4.837 -1.481
v 5.205 4.837 -4.151
v 2.889 4.837 -5.998
v -0.0 1.337 -4.114
v -1.785 1.337 -3.707
v -3.217 1.337 -2.565
v -4.011 1.337 -0.916
v -4.011 1.337 0.916
v -3.217 1.337 2.565
v -1.785 1.337 3.707
v -0.0 1.337 4.114
v 1.785 1.337 3.707
v 3.217 1.337 2.565
v 4.011 1.337 0.916
v 4.011 1.337 -0.916
v 3.217 1.337 -2.565
v 1.785 1.337 -3.707
v 0.0 0.0 0.0
v 0.0 0.0 0.0
v 0.0 0.0 0.0
v 0.0 0.0 0.0
v 0.0 0.0 -0.0
v 0.0 0.0 -0.0
v 0.0 0.0 -0.0
v 0.0 0.0 -0.0
v -0.0 0.0 -0.0
v -0.0 0.0 -0.0
v -0.0 0.0 -0.0
v -0.0 0.0 0.0
v -0.0 0.0 0.0
v -0.0 0.0 0.0
v 0.0 1.337 4.114
v 1.785 1.337 3.707
v 3.217 1.337 2.565
v 4.011 1.337 0.916
v 4.011 1.337 -0.916
v 3.217 1.337 -2.565
v 1.785 1.337 -3.707
v 0.0 1.337 -4.114
v -1.785 1.337 -3.707
v -3.217 1.337 -2.565
v -4.011 1.337 -0.916
v -4.011 1.337 0.916
v -3.217 1.337 2.565
v -1.785 1.337 3.707
v 0.0 4.837 6.657
v 2.889 4.837 5.998
v 5.205 4.837 4.151
v 6.49 4.837 1.481
v 6.49 4.837 -1.481
v 5.205 4.837 -4.151
v 2.889 4.837 -5.998
v 0.0 4.837 -6.657
v -2.889 4.837 -5.998
v -5.205 4.837 -4.151
v -6.49 4.837 -1.481
v -6.49 4.837 1.481
v -5.205 4.837 4.151
v -2.889 4.837 5.998
v 0.0 9.163 6.657
v 2.889 9.163 5.998
v 5.205 9.163 4.151
v 6.49 9.163 1.481
v 6.49 9.163 -1.481
v 5.205 9.163 -4.151
v 2.889 9.163 -5.998
v 0.0 9.163 -6.657
v -2.889 9.163 -5.998
v -5.205 9.163 -4.151
v -6.49 9.163 -1.481
v -6.49 9.163 1.481
v -5.205 9.163 4.151
v -2.889 9.163 5.998
v 0.0 12.663 4.114
v 1.785 12.663 3.707
v 3.217 12.663 2.565
v 4.011 12.663 0.916
v 4.011 12.663 -0.916
v 3.217 12.663 -2.565
v 1.785 12.663 -3.707
v 0.0 12.663 -4.114
v -1.785 12.663 -3.707
v -3.217 12.663 -2.565
v -4.011 12.663 -0.916
v -4.011 12.663 0.916
v -3.217 12.663 2.565
v -1.785 12.663 3.707
v 0.0 14.0 0.0
v 0.0 14.0 0.0
v 0.0 14.0 0.0
v 0.0 14.0 0.0
v 0.0 14.0 -0.0
v 0.0 14.0 -0.0
v 0.0 14.0 -0.0
v 0.0 14.0 -0.0
v -0.0 14.0 -0.0
v -0.0 14.0 -0.0
v -0.0 14.0 -0.0
v -0.0 14.0 0.0
v -0.0 14.0 0.0
v -0.0 14.0 0.0
v -0.0 12.663 -4.114
v -1.785 12.663 -3.707
v -3.217 12.663 -2.565
v -4.011 12.663 -0.916
v -4.011 12.663 0.916
v -3.217 12.663 2.565
v -1.785 12.663 3.707
v -0.0 12.663 4.114
v 1.785 12.663 3.707
v 3.217 12.663 2.565
v 4.011 12.663 0.916
v 4.011 12.663 -0.916
v 3.217 12.663 -2.565
v 1.785 12.663 -3.707
v -0.0 9.163 -6.657
v -2.889 9.163 -5.998
v -5.205 9.163 -4.151
v -6.49 9.163 -1.481
v -6.49 9.163 1.481
v -5.205 9.163 4.151
v -2.889 9.163 5.998
v -0.0 9.163 6.657
v 2.889 9.163 5.998
v 5.205 9.163 4.151
v 6.49 9.163 1.481
v 6.49 9.163 -1.481
v 5.205 9.163 -4.151
v 2.889 9.163 -5.998
f 1 2 15
f 2 3 16
f 3 4 17
f 4 5 18
f 5 6 19
f 6 7 20
f 7 8 21
f 8 9 22
f 9 10 23
f 10 11 24
f 11 12 25
f 12 13 26
f 13 14 27
f 14 15 28
f 15 16 29
f 16 17 30
f 17 18 31
f 18 19 32
f 19 20 33
f 20 21 34
f 21 22 35
f 22 23 36
f 23 24 37
f 24 25 38
f 25 26 39
f 26 27 40
f 27 28 41
f 28 29 42
f 29 30 43
f 30 31 44
f 31 32 45
f 32 33 46
f 33 34 47
f 34 35 48
f 35 36 49
f 36 37 50
f 37 38 51
f 38 39 52
f 39 40 53
f 40 41 54
f 41 42 55
f 42 43 56
f 43 44 57
f 44 45 58
f 45 46 59
f 46 47 60
f 47 48 61
f 48 49 62
f 49 50 63
f 50 51 64
f 51 52 65
f 52 53 66
f 53 54 67
f 54 55 68
f 55 56 69
f 56 57 70
f 57 58 71
f 58 59 72
f 59 60 73
f 60 61 74
f 61 62 75
f 62 63 76
f 63 64 77
f 64 65 78
f 65 66 79
f 66 67 80
f 67 68 81
f 68 69 82
f 69 70 83
f 70 71 84
f 71 72 85
f 72 73 86
f 73 74 87
f 74 75 88
f 75 76 89
f 76 77 90
f 77 78 91
f 78 79 92
f 79 80 93
f 80 81 94
f 81 82 95
f 82 83 96
f 83 84 97
f 84 85 98
f 85 86 99
f 86 87 100
f 87 88 101
f 88 89 102
f 89 90 103
f 90 91 104
f 91 92 105
f 92 93 106
f 93 94 107
f 94 95 108
f 95 96 109
f 96 97 110
f 97 98 111
f 98 99 112
f 99 100 113
f 100 101 114
f 101 102 115
f 102 103 116
f 103 104 117
f 104 105 118
f 105 106 119
f 106 107 120
f 107 108 121
f 108 109 122
f 109 110 123
f 110 111 124
f 111 112 125
f 112 113 126
f 113 114 127
f 114 115 128
f 115 116 129
f 116 117 130
f 117 118 131
f 118 119 132
f 119 120 133
f 120 121 134
f 121 122 135
f 122 123 136
f 123 124 137
f 124 125 138
f 125 126 139
